<svg xmlns="http://www.w3.org/2000/svg" xmlns:xlink="http://www.w3.org/1999/xlink" width="500" zoomAndPan="magnify" viewBox="0 0 375 374.999991" height="500" preserveAspectRatio="xMidYMid meet" version="1.0"><defs><g/><clipPath id="1c1b219698"><path d="M 257.242188 152.4375 L 296.242188 152.4375 L 296.242188 173.4375 L 257.242188 173.4375 Z M 257.242188 152.4375 " clip-rule="nonzero"/></clipPath></defs><g fill="#4c423f" fill-opacity="1"><g transform="translate(78.709715, 217.499986)"><g><path d="M 22.359375 -52.140625 C 29.566406 -52.140625 35.753906 -49.582031 40.921875 -44.46875 C 46.023438 -39.351562 48.578125 -33.164062 48.578125 -25.90625 C 48.578125 -18.695312 46.023438 -12.507812 40.921875 -7.34375 C 35.753906 -2.226562 29.566406 0.328125 22.359375 0.328125 L 2.421875 0.328125 L 2.421875 -52.140625 Z M 32.359375 -15.90625 C 35.109375 -18.644531 36.484375 -21.976562 36.484375 -25.90625 C 36.484375 -29.78125 35.109375 -33.144531 32.359375 -36 C 29.617188 -38.738281 26.257812 -40.109375 22.28125 -40.109375 L 15.015625 -40.109375 L 15.015625 -11.78125 L 22.359375 -11.78125 C 26.285156 -11.78125 29.617188 -13.15625 32.359375 -15.90625 Z M 32.359375 -15.90625 "/></g></g></g><g fill="#4c423f" fill-opacity="1"><g transform="translate(129.709163, 217.499986)"><g><path d="M 32.28125 -41.71875 L 43.578125 -41.71875 L 43.578125 0 L 32.28125 0 L 32.28125 -4.6875 C 29.96875 -1.664062 26.472656 -0.15625 21.796875 -0.15625 C 16.085938 -0.101562 11.191406 -2.097656 7.109375 -6.140625 C 3.015625 -10.171875 0.941406 -15.066406 0.890625 -20.828125 C 0.835938 -26.523438 2.828125 -31.421875 6.859375 -35.515625 C 10.890625 -39.597656 15.785156 -41.664062 21.546875 -41.71875 C 26.285156 -41.71875 29.863281 -40.1875 32.28125 -37.125 Z M 28.890625 -13.71875 C 30.878906 -15.707031 31.875 -18.128906 31.875 -20.984375 C 31.875 -23.890625 30.851562 -26.3125 28.8125 -28.25 C 26.769531 -30.289062 24.375 -31.257812 21.625 -31.15625 C 18.769531 -31.15625 16.347656 -30.160156 14.359375 -28.171875 C 12.367188 -26.171875 11.375 -23.75 11.375 -20.90625 C 11.375 -18.101562 12.398438 -15.679688 14.453125 -13.640625 C 16.441406 -11.648438 18.859375 -10.65625 21.703125 -10.65625 C 24.609375 -10.757812 27.003906 -11.78125 28.890625 -13.71875 Z M 28.890625 -13.71875 "/></g></g></g><g fill="#4c423f" fill-opacity="1"><g transform="translate(175.705494, 217.499986)"><g><path d="M 53.265625 -41.640625 C 58.859375 -41.691406 63.40625 -40.023438 66.90625 -36.640625 C 70.664062 -33.085938 72.546875 -28.109375 72.546875 -21.703125 L 72.546875 0 L 62.0625 0 L 62.0625 -20.984375 C 62.0625 -21.785156 61.925781 -22.703125 61.65625 -23.734375 C 61.28125 -24.960938 60.769531 -26.0625 60.125 -27.03125 C 58.40625 -29.78125 55.875 -31.15625 52.53125 -31.15625 C 48.988281 -31.15625 46.410156 -29.78125 44.796875 -27.03125 C 44.203125 -26.007812 43.769531 -24.851562 43.5 -23.5625 C 43.28125 -22.644531 43.171875 -21.734375 43.171875 -20.828125 L 43.171875 0 L 32.609375 0 L 32.609375 -20.984375 C 32.609375 -21.785156 32.472656 -22.703125 32.203125 -23.734375 C 31.878906 -24.960938 31.394531 -26.0625 30.75 -27.03125 C 28.96875 -29.78125 26.4375 -31.15625 23.15625 -31.15625 C 19.550781 -31.15625 16.941406 -29.78125 15.328125 -27.03125 C 14.742188 -26.007812 14.316406 -24.851562 14.046875 -23.5625 C 13.828125 -22.644531 13.71875 -21.734375 13.71875 -20.828125 L 13.71875 0 L 2.421875 0 L 2.421875 -41.71875 L 13.71875 -41.71875 L 13.71875 -37.359375 C 16.351562 -40.210938 19.742188 -41.640625 23.890625 -41.640625 C 29.960938 -41.742188 34.882812 -39.40625 38.65625 -34.625 L 42.046875 -37.765625 C 45.222656 -40.347656 48.960938 -41.640625 53.265625 -41.640625 Z M 53.265625 -41.640625 "/></g></g></g><g fill="#4c423f" fill-opacity="1"><g transform="translate(250.671454, 217.499986)"><g><path d="M 23.078125 -41.40625 C 28.992188 -41.882812 33.890625 -40.347656 37.765625 -36.796875 C 41.910156 -32.984375 43.984375 -27.628906 43.984375 -20.734375 L 43.984375 0 L 33.484375 0 L 33.484375 -20.5 L 33.40625 -20.5 L 33.40625 -20.65625 C 33.40625 -23.507812 32.410156 -25.929688 30.421875 -27.921875 C 28.429688 -29.910156 26.007812 -30.90625 23.15625 -30.90625 C 20.25 -30.800781 17.832031 -29.78125 15.90625 -27.84375 C 13.851562 -25.800781 12.882812 -23.378906 13 -20.578125 L 13 -20.5 L 12.90625 -20.5 L 12.90625 0 L 1.609375 0 L 1.609375 -41.71875 L 12.90625 -41.71875 L 12.90625 -36.3125 C 15.4375 -39.320312 18.828125 -41.019531 23.078125 -41.40625 Z M 23.078125 -41.40625 "/></g></g></g><g clip-path="url(#1c1b219698)"><path fill="#d46955" d="M 266.304688 163.578125 L 276.765625 167.226562 L 287.226562 163.578125 L 287.226562 169.898438 C 287.226562 171.871094 282.542969 173.472656 276.765625 173.472656 C 270.988281 173.472656 266.304688 171.871094 266.304688 169.898438 Z M 276.765625 152.4375 L 296.289062 159.25 L 293.398438 160.257812 L 293.398438 165.851562 L 293.480469 165.878906 C 293.914062 166.0625 294.21875 166.492188 294.21875 166.988281 C 294.21875 167.324219 294.085938 167.625 293.867188 167.84375 L 293.847656 167.859375 L 294.519531 171.8125 L 291.503906 171.8125 L 292.179688 167.859375 L 292.15625 167.84375 C 291.941406 167.625 291.804688 167.324219 291.804688 166.988281 C 291.804688 166.492188 292.109375 166.0625 292.542969 165.878906 L 292.625 165.851562 L 292.625 160.527344 L 276.765625 166.0625 L 257.242188 159.25 Z M 276.765625 152.4375 " fill-opacity="1" fill-rule="evenodd"/></g></svg>